<svg id="Layer_1" data-name="Layer 1" xmlns="http://www.w3.org/2000/svg" viewBox="0 0 1000 1000"><defs><style>.cls-1{fill:#103a6e;}.cls-2{fill:#fff;}</style></defs><rect class="cls-1" x="-10" y="-10" width="1020" height="1020"/><path class="cls-2" d="M770.24,274.68c-4.36,7.45-10.42,13-19.37,12.86-8.69-.11-14.67-5.52-18.68-12.89-8.82-16.27-8.49-32.91-.59-49.25,3.86-8,10.2-14.13,19.9-13.93s15.41,6.67,19.63,14.5a44.3,44.3,0,0,1,5.31,22.21C776.73,258.08,774.9,266.73,770.24,274.68Z"/><path class="cls-2" d="M264.05,280.12c-8.24,9.48-20,9.86-29,1.27a34.8,34.8,0,0,1-7.34-11.11c-7.8-17-4.41-40.93,7.43-52.65,8.66-8.58,20.42-8.2,28.5.87,7.9,8.87,10.33,19.59,10.61,28.19C274.25,260.87,271.65,271.37,264.05,280.12Z"/><path class="cls-2" d="M645.13,284.09C609,264.23,557.39,251.78,500,251.78s-109,12.45-145.14,32.31a118.43,118.43,0,0,0-16.18,207.18c1.3,60.86,10.08,178.84,54.17,290.2,4.75,12,22.72,7.75,21.54-5.11-6.52-71.55-12.81-185.46,2.46-266.59A118.36,118.36,0,0,0,500,460.67a118.34,118.34,0,0,0,83.15,49.1c15.27,81.13,9,195,2.46,266.59-1.18,12.86,16.79,17.12,21.54,5.11,44.09-111.36,52.87-229.34,54.17-290.2a118.42,118.42,0,0,0-16.19-207.18Zm-103,42.6c-12.4,36.16-41.33,36.68-41.33,36.68-28.41.52-40.29-28.93-40.29-28.93-8.06-15.78.9-23.05,8.17-26.21a31.23,31.23,0,0,1,10.67-2.42,391.78,391.78,0,0,1,41.6.22C548.29,306.7,542.1,326.69,542.1,326.69Z"/></svg>