<svg id="Layer_1" data-name="Layer 1" xmlns="http://www.w3.org/2000/svg" viewBox="0 0 1000 1000"><defs><style>.cls-1{fill:#103a6e;}</style></defs><path class="cls-1" d="M256.12,401.53a243.88,243.88,0,0,0,487.76,0c0-134.48-109.4-243.88-243.88-243.88S256.12,267.05,256.12,401.53Zm345.82-12.37c-1.65,2.81-3.93,4.89-7.31,4.85s-5.54-2.09-7-4.87c-3.33-6.13-3.21-12.41-.23-18.57,1.46-3,3.85-5.33,7.51-5.26s5.81,2.52,7.4,5.47a16.76,16.76,0,0,1,2,8.38A18.06,18.06,0,0,1,601.94,389.16Zm-190.94,2c-3.11,3.57-7.55,3.72-10.93.48a13.08,13.08,0,0,1-2.77-4.19c-2.94-6.43-1.67-15.44,2.8-19.86a7,7,0,0,1,10.75.33,16.56,16.56,0,0,1,4,10.63C414.85,384,413.87,387.91,411,391.21Zm7.9,42.24a44.69,44.69,0,0,1,26.35-40.75c13.62-7.49,33.1-12.18,54.75-12.18s41.13,4.69,54.75,12.18a44.68,44.68,0,0,1,6.1,78.16c-.49,22.95-3.8,67.45-20.43,109.46a4.22,4.22,0,0,1-8.13-1.93c2.46-27,4.84-69.95-.93-100.56A44.64,44.64,0,0,1,500,459.31a44.64,44.64,0,0,1-31.36,18.52c-5.77,30.61-3.39,73.58-.93,100.56a4.22,4.22,0,0,1-8.13,1.93c-16.63-42-19.94-86.51-20.43-109.46A44.64,44.64,0,0,1,418.9,433.45ZM282.2,401.53c0-120.09,97.71-217.8,217.8-217.8s217.8,97.71,217.8,217.8a216.83,216.83,0,0,1-50.32,139.08L651.31,410.79A151.9,151.9,0,0,0,499.84,270.27h0A151.9,151.9,0,0,0,348.36,410.9l-16,129.55A216.78,216.78,0,0,1,282.2,401.53Z"/><path class="cls-1" d="M488.17,401.81a11.88,11.88,0,0,1,4-.91,148.62,148.62,0,0,1,15.69.08c10.32.25,8,7.8,8,7.8-4.68,13.64-15.59,13.83-15.59,13.83-10.72.2-15.2-10.91-15.2-10.91C482.05,405.75,485.43,403,488.17,401.81Z"/><path class="cls-1" d="M161.85,722.87a40,40,0,0,1,16.77,15.93q5.91,10.34,5.91,24t-5.91,23.86a40.18,40.18,0,0,1-16.77,15.8Q151,808,136.69,808H105V717.28h31.72Q151,717.28,161.85,722.87Zm-3.71,61.89q7.8-7.82,7.8-22t-7.8-22.16q-7.8-8-22.1-8H123.17v59.94H136Q150.35,792.56,158.14,784.76Z"/><path class="cls-1" d="M264.62,777.48H212q.65,7.78,5.46,12.22a16.85,16.85,0,0,0,11.83,4.42q10.14,0,14.43-8.71h19.63a32.81,32.81,0,0,1-12,17.09q-8.85,6.71-21.71,6.7A37.53,37.53,0,0,1,211,804.58a32.49,32.49,0,0,1-12.87-13.06,40,40,0,0,1-4.61-19.5,40.74,40.74,0,0,1,4.55-19.64,31.79,31.79,0,0,1,12.74-13,40.9,40.9,0,0,1,37.24-.13,31.12,31.12,0,0,1,12.62,12.55,37.92,37.92,0,0,1,4.48,18.65A42.8,42.8,0,0,1,264.62,777.48Zm-18.33-12.23A14.45,14.45,0,0,0,241.22,754a18,18,0,0,0-12.09-4.23,16.54,16.54,0,0,0-11.38,4.1q-4.62,4.1-5.65,11.37Z"/><path class="cls-1" d="M344.84,777.48H292.18q.65,7.78,5.46,12.22a16.87,16.87,0,0,0,11.83,4.42q10.14,0,14.43-8.71h19.64a32.77,32.77,0,0,1-12,17.09q-8.83,6.71-21.71,6.7a37.52,37.52,0,0,1-18.65-4.62,32.45,32.45,0,0,1-12.88-13.06,40.14,40.14,0,0,1-4.61-19.5,40.86,40.86,0,0,1,4.55-19.64,31.79,31.79,0,0,1,12.74-13,40.92,40.92,0,0,1,37.25-.13,31.1,31.1,0,0,1,12.61,12.55,37.93,37.93,0,0,1,4.49,18.65A43.93,43.93,0,0,1,344.84,777.48ZM326.5,765.25A14.38,14.38,0,0,0,321.43,754a17.94,17.94,0,0,0-12.09-4.23,16.49,16.49,0,0,0-11.37,4.1q-4.62,4.1-5.66,11.37Z"/><path class="cls-1" d="M386.5,738.15a29.37,29.37,0,0,1,14.11-3.32,31.51,31.51,0,0,1,16.7,4.55,32.09,32.09,0,0,1,11.84,12.94,41.62,41.62,0,0,1,4.35,19.43,42.41,42.41,0,0,1-4.35,19.57,32.77,32.77,0,0,1-11.84,13.2,30.82,30.82,0,0,1-16.7,4.68,29.15,29.15,0,0,1-14-3.25,30,30,0,0,1-9.81-8.19v44.59h-18.2V736h18.2v10.4A27.7,27.7,0,0,1,386.5,738.15Zm25.74,22.36a18.42,18.42,0,0,0-7-7.22,18.83,18.83,0,0,0-9.42-2.47,18.2,18.2,0,0,0-9.3,2.54,18.89,18.89,0,0,0-7,7.34,25.4,25.4,0,0,0,0,22.63,18.89,18.89,0,0,0,7,7.34,18.33,18.33,0,0,0,18.72-.06,19.25,19.25,0,0,0,7-7.42,23.17,23.17,0,0,0,2.67-11.44A22.55,22.55,0,0,0,412.24,760.51Z"/><path class="cls-1" d="M496.42,803a44.68,44.68,0,0,1-16.9-16.58,49,49,0,0,1,0-47.84A44.68,44.68,0,0,1,496.42,722a48.91,48.91,0,0,1,46.87,0,44.2,44.2,0,0,1,16.77,16.58,49.38,49.38,0,0,1,0,47.84A44.15,44.15,0,0,1,543.23,803a48.79,48.79,0,0,1-46.81,0Zm37.84-14A25.4,25.4,0,0,0,544,778.39a34.82,34.82,0,0,0,3.51-16A34.36,34.36,0,0,0,544,746.47,25.09,25.09,0,0,0,534.26,736a28.18,28.18,0,0,0-14.43-3.64,28.54,28.54,0,0,0-14.5,3.64,25,25,0,0,0-9.82,10.47A34.36,34.36,0,0,0,492,762.39a34.82,34.82,0,0,0,3.51,16A25.3,25.3,0,0,0,505.33,789a28.08,28.08,0,0,0,14.5,3.71A27.73,27.73,0,0,0,534.26,789Z"/><path class="cls-1" d="M579.63,752.45a32.48,32.48,0,0,1,12.61-13,36.45,36.45,0,0,1,18.46-4.62q13.39,0,22.17,6.7t11.77,18.78H625a14.35,14.35,0,0,0-5.26-7.34,15.28,15.28,0,0,0-9.17-2.67A15,15,0,0,0,598.22,756q-4.54,5.65-4.55,16.06t4.55,15.92a15,15,0,0,0,12.35,5.66q11.05,0,14.43-9.89h19.64a33.25,33.25,0,0,1-11.84,18.6q-8.84,6.88-22.1,6.89a36.45,36.45,0,0,1-18.46-4.62,32.48,32.48,0,0,1-12.61-13,44.34,44.34,0,0,1,0-39.13Z"/><path class="cls-1" d="M724.46,777.48H671.8q.66,7.78,5.47,12.22a16.85,16.85,0,0,0,11.83,4.42q10.14,0,14.43-8.71h19.63a32.81,32.81,0,0,1-12,17.09q-8.85,6.71-21.71,6.7a37.53,37.53,0,0,1-18.66-4.62A32.37,32.37,0,0,1,658,791.52a40,40,0,0,1-4.62-19.5,40.86,40.86,0,0,1,4.55-19.64,31.85,31.85,0,0,1,12.74-13,40.92,40.92,0,0,1,37.25-.13,31.1,31.1,0,0,1,12.61,12.55A37.93,37.93,0,0,1,725,770.45,43.93,43.93,0,0,1,724.46,777.48Zm-18.33-12.23A14.45,14.45,0,0,0,701.06,754,18,18,0,0,0,689,749.78a16.54,16.54,0,0,0-11.38,4.1q-4.62,4.1-5.65,11.37Z"/><path class="cls-1" d="M737.91,752.38a32.05,32.05,0,0,1,11.83-13,31.57,31.57,0,0,1,16.71-4.55,29.45,29.45,0,0,1,14.11,3.25,28.61,28.61,0,0,1,9.68,8.19V736h18.34v72H790.24V797.5a27.1,27.1,0,0,1-9.68,8.38,29.67,29.67,0,0,1-14.24,3.32,30.63,30.63,0,0,1-16.58-4.68,32.82,32.82,0,0,1-11.83-13.2,42.41,42.41,0,0,1-4.35-19.57A41.74,41.74,0,0,1,737.91,752.38Zm49.73,8.26a18.31,18.31,0,0,0-7-7.28,18.75,18.75,0,0,0-9.49-2.54,18.25,18.25,0,0,0-16.31,9.69,22.55,22.55,0,0,0-2.67,11.24,23.31,23.31,0,0,0,2.67,11.38,19.15,19.15,0,0,0,7,7.48,17.85,17.85,0,0,0,9.29,2.6,18.75,18.75,0,0,0,9.49-2.54,18.24,18.24,0,0,0,7-7.28,26.18,26.18,0,0,0,0-22.75Z"/><path class="cls-1" d="M887.1,743.09q7.93,8.11,7.93,22.68V808h-18.2V768.24q0-8.58-4.29-13.19t-11.7-4.62q-7.55,0-11.9,4.62t-4.35,13.19V808h-18.2V736h18.2v9a25,25,0,0,1,9.29-7.34A28.72,28.72,0,0,1,866.3,735Q879.17,735,887.1,743.09Z"/></svg>