<svg id="Layer_1" data-name="Layer 1" xmlns="http://www.w3.org/2000/svg" viewBox="0 0 1000 1000"><defs><style>.cls-1{fill:#fff;}</style></defs><path class="cls-1" d="M151.64,500a348.36,348.36,0,0,0,696.72,0c0-192.08-156.28-348.36-348.36-348.36S151.64,307.92,151.64,500Zm494-17.67c-2.35,4-5.61,7-10.43,6.92s-7.91-3-10.07-6.94c-4.75-8.77-4.57-17.74-.32-26.54,2.08-4.3,5.5-7.61,10.73-7.5s8.3,3.59,10.57,7.81a24,24,0,0,1,2.87,12A25.8,25.8,0,0,1,645.6,482.33Zm-272.73,2.93c-4.44,5.1-10.77,5.31-15.61.68a18.54,18.54,0,0,1-3.95-6c-4.21-9.18-2.38-22.06,4-28.37,4.67-4.63,11-4.42,15.36.47a23.72,23.72,0,0,1,5.72,15.18C378.37,474.89,377,480.54,372.87,485.26Zm11.28,60.33a63.83,63.83,0,0,1,37.65-58.2c19.45-10.7,47.28-17.4,78.2-17.4s58.75,6.7,78.2,17.4A63.81,63.81,0,0,1,586.92,599c-.7,32.79-5.44,96.36-29.19,156.36-2.56,6.47-12.24,4.18-11.61-2.76C549.64,714.08,553,652.7,544.8,609A63.79,63.79,0,0,1,500,582.53,63.79,63.79,0,0,1,455.2,609c-8.23,43.71-4.84,105.09-1.32,143.63.63,6.94-9.05,9.23-11.61,2.76-23.75-60-28.49-123.57-29.19-156.36A63.77,63.77,0,0,1,384.15,545.59ZM188.9,500c0-171.54,139.56-311.1,311.1-311.1S811.1,328.46,811.1,500a309.7,309.7,0,0,1-71.88,198.66L716.13,513.23A217,217,0,0,0,499.78,312.51h0A217,217,0,0,0,283.41,513.39L260.59,698.44A309.69,309.69,0,0,1,188.9,500Z"/><path class="cls-1" d="M483.11,500.4a16.66,16.66,0,0,1,5.75-1.3,209.39,209.39,0,0,1,22.41.11c14.75.36,11.41,11.14,11.41,11.14-6.68,19.48-22.26,19.76-22.26,19.76-15.31.28-21.71-15.59-21.71-15.59C474.36,506,479.19,502.1,483.11,500.4Z"/></svg>