<?xml version="1.0" encoding="utf-8"?>
<!-- Generator: Adobe Illustrator 24.1.1, SVG Export Plug-In . SVG Version: 6.00 Build 0)  -->
<svg xmlns="http://www.w3.org/2000/svg" xmlns:xlink="http://www.w3.org/1999/xlink" version="1.1" id="Layer_4" x="0px" y="0px" viewBox="0 0 743.6 672.8" style="enable-background:new 0 0 743.6 672.8;" xml:space="preserve" width="743.6" height="672.8">
<style type="text/css">
	.st0{fill:url(#SVGID_1_);}
	.st1{fill:url(#SVGID_2_);}
	.st2{fill:url(#SVGID_3_);}
	.st3{fill:url(#SVGID_4_);}
	.st4{fill:url(#SVGID_5_);}
	.st5{fill:url(#SVGID_6_);}
	.st6{fill:url(#SVGID_7_);}
	.st7{fill:url(#SVGID_8_);}
	.st8{fill:url(#SVGID_9_);}
	.st9{fill:url(#SVGID_10_);}
	.st10{fill:url(#SVGID_11_);}
	.st11{fill:url(#SVGID_12_);}
	.st12{fill:url(#SVGID_13_);}
	.st13{fill:url(#SVGID_14_);}
	.st14{fill:url(#SVGID_15_);}
	.st15{fill:url(#SVGID_16_);}
	.st16{fill:url(#SVGID_17_);}
	.st17{fill:url(#SVGID_18_);}
	.st18{fill:url(#SVGID_19_);}
	.st19{fill:url(#SVGID_20_);}
	.st20{fill:url(#SVGID_21_);}
	.st21{fill:url(#SVGID_22_);}
	.st22{fill:url(#SVGID_23_);}
	.st23{fill:url(#SVGID_24_);}
	.st24{fill:url(#SVGID_25_);}
	.st25{fill:url(#SVGID_26_);}
	.st26{fill:url(#SVGID_27_);}
	.st27{fill:url(#SVGID_28_);}
	.st28{fill:url(#SVGID_29_);}
	.st29{fill:url(#SVGID_30_);}
	.st30{fill:url(#SVGID_31_);}
	.st31{fill:url(#SVGID_32_);}
	.st32{fill:url(#SVGID_33_);}
	.st33{fill:url(#SVGID_34_);}
	.st34{fill:url(#SVGID_35_);}
	.st35{fill:url(#SVGID_36_);}
	.st36{fill:url(#SVGID_37_);}
	.st37{fill:url(#SVGID_38_);}
	.st38{fill:url(#SVGID_39_);}
	.st39{fill:url(#SVGID_40_);}
	.st40{fill:url(#SVGID_41_);}
	.st41{fill:url(#SVGID_42_);}
	.st42{fill:url(#SVGID_43_);}
	.st43{fill:url(#SVGID_44_);}
	.st44{fill:url(#SVGID_45_);}
	.st45{fill:url(#SVGID_46_);}
	.st46{fill:url(#SVGID_47_);}
	.st47{fill:url(#SVGID_48_);}
	.st48{fill:url(#SVGID_49_);}
	.st49{fill:url(#SVGID_50_);}
	.st50{fill:url(#SVGID_51_);}
	.st51{fill:url(#SVGID_52_);}
	.st52{fill:url(#SVGID_53_);}
	.st53{fill:url(#SVGID_54_);}
	.st54{fill:url(#SVGID_55_);}
	.st55{fill:url(#SVGID_56_);}
	.st56{fill:url(#SVGID_57_);}
	.st57{fill:url(#SVGID_58_);}
	.st58{fill:url(#SVGID_59_);}
	.st59{fill:url(#SVGID_60_);}
	.st60{fill:#FFFFFF;}
	.st61{fill:url(#SVGID_61_);}
	.st62{fill:url(#SVGID_62_);}
	.st63{fill:url(#SVGID_63_);}
	.st64{fill:url(#SVGID_64_);}
	.st65{fill:url(#SVGID_65_);}
	.st66{fill:url(#SVGID_66_);}
	.st67{fill:url(#SVGID_67_);}
	.st68{fill:url(#SVGID_68_);}
	.st69{fill:url(#SVGID_69_);}
	.st70{fill:url(#SVGID_70_);}
	.st71{fill:url(#SVGID_71_);}
	.st72{fill:url(#SVGID_72_);}
</style>
<g>
	
		<linearGradient id="SVGID_1_" gradientUnits="userSpaceOnUse" x1="-114.7109" y1="-70.1545" x2="-113.7109" y2="-70.1545" gradientTransform="matrix(-45.3185 160.0611 160.0611 45.3185 6418.5571 21997.0645)">
		<stop offset="0" style="stop-color:#FEB883"/>
		<stop offset="0.5076" style="stop-color:#ED9AC0"/>
		<stop offset="1" style="stop-color:#B78FFC"/>
	</linearGradient>
	<polygon class="st0" points="347.6,458.4 357.6,548.2 395.7,571.5 383.5,492.2  "/>
	
		<linearGradient id="SVGID_2_" gradientUnits="userSpaceOnUse" x1="-114.7109" y1="-70.1568" x2="-113.7109" y2="-70.1568" gradientTransform="matrix(17.8381 -131.1344 -131.1344 -17.8381 -6847.3643 -15728.4883)">
		<stop offset="0" style="stop-color:#FEB883"/>
		<stop offset="0.5076" style="stop-color:#ED9AC0"/>
		<stop offset="1" style="stop-color:#B78FFC"/>
	</linearGradient>
	<polygon class="st1" points="274.6,571.5 357.6,548.2 347.6,458.4 269.1,480.6  "/>
	
		<linearGradient id="SVGID_3_" gradientUnits="userSpaceOnUse" x1="-114.7109" y1="-70.1537" x2="-113.7109" y2="-70.1537" gradientTransform="matrix(44.3543 -144.1514 -144.1514 -44.3543 -4704.6533 -19027.127)">
		<stop offset="0" style="stop-color:#FEB883"/>
		<stop offset="0.5076" style="stop-color:#ED9AC0"/>
		<stop offset="1" style="stop-color:#B78FFC"/>
	</linearGradient>
	<polygon class="st2" points="320.3,591.8 395.7,571.5 357.6,548.2 274.6,571.5  "/>
	
		<linearGradient id="SVGID_4_" gradientUnits="userSpaceOnUse" x1="-114.7109" y1="-70.1549" x2="-113.7109" y2="-70.1549" gradientTransform="matrix(-11.0886 118.1174 118.1174 11.0886 7150.0332 14776.4932)">
		<stop offset="0" style="stop-color:#9BC1F7"/>
		<stop offset="1" style="stop-color:#B78FFC"/>
	</linearGradient>
	<polygon class="st3" points="168.6,458.1 160.7,554.6 88.5,576.8 99.3,486.2  "/>
	
		<linearGradient id="SVGID_5_" gradientUnits="userSpaceOnUse" x1="-114.7109" y1="-70.156" x2="-113.7109" y2="-70.156" gradientTransform="matrix(-124.3849 154.7579 154.7579 124.3849 -3128.1616 26891.7793)">
		<stop offset="0" style="stop-color:#9BC1F7"/>
		<stop offset="0.6781" style="stop-color:#AE9FFA"/>
		<stop offset="1" style="stop-color:#B78FFC"/>
	</linearGradient>
	<path class="st4" d="M229.5,576.8l-68.8-22.2l7.8-96.5c0,0,64.6,24.2,64.6,24.9L229.5,576.8z"/>
	
		<linearGradient id="SVGID_6_" gradientUnits="userSpaceOnUse" x1="-114.7109" y1="-70.16" x2="-113.7109" y2="-70.16" gradientTransform="matrix(26.573 -223.2038 -223.2038 -26.573 -12457.7949 -26849.4844)">
		<stop offset="0" style="stop-color:#B284FC"/>
		<stop offset="1" style="stop-color:#6356ED"/>
	</linearGradient>
	<polygon class="st5" points="155,599.2 229.5,576.8 160.7,554.6 88.5,576.8  "/>
	
		<linearGradient id="SVGID_7_" gradientUnits="userSpaceOnUse" x1="-114.7109" y1="-70.1583" x2="-113.7109" y2="-70.1583" gradientTransform="matrix(36.6405 156.6864 156.6864 -36.6405 15347.8877 15494.5234)">
		<stop offset="0" style="stop-color:#FEB883"/>
		<stop offset="0.5076" style="stop-color:#ED9AC0"/>
		<stop offset="1" style="stop-color:#B78FFC"/>
	</linearGradient>
	<polygon class="st6" points="208.9,113.2 203.6,193.9 131.8,226.8 140.6,149.9  "/>
	
		<linearGradient id="SVGID_8_" gradientUnits="userSpaceOnUse" x1="-114.7109" y1="-70.1583" x2="-113.7109" y2="-70.1583" gradientTransform="matrix(-133.0629 148.9726 148.9726 133.0629 -4484.0586 26495.0195)">
		<stop offset="0" style="stop-color:#FEB883"/>
		<stop offset="0.5076" style="stop-color:#ED9AC0"/>
		<stop offset="1" style="stop-color:#B78FFC"/>
	</linearGradient>
	<polygon class="st7" points="267.5,229.5 203.6,193.9 208.9,113.2 270.6,156.7  "/>
	
		<linearGradient id="SVGID_9_" gradientUnits="userSpaceOnUse" x1="-114.7109" y1="-70.1596" x2="-113.7109" y2="-70.1596" gradientTransform="matrix(-110.8857 152.3474 152.3474 110.8857 -1737.2085 25354.1504)">
		<stop offset="0" style="stop-color:#FEB883"/>
		<stop offset="0.5076" style="stop-color:#ED9AC0"/>
		<stop offset="1" style="stop-color:#B78FFC"/>
	</linearGradient>
	<polygon class="st8" points="202,265.4 267.5,229.5 203.6,193.9 131.8,226.8  "/>
	
		<linearGradient id="SVGID_10_" gradientUnits="userSpaceOnUse" x1="-114.7109" y1="-70.1549" x2="-113.7109" y2="-70.1549" gradientTransform="matrix(41.5309 -177.3159 -177.3159 -41.5309 -7425.52 -22949.4336)">
		<stop offset="0" style="stop-color:#8BE1DA"/>
		<stop offset="1" style="stop-color:#5F90FC"/>
	</linearGradient>
	<polygon class="st9" points="302.5,153.5 307.4,212.4 241.4,246.4 241.4,188.1  "/>
	
		<linearGradient id="SVGID_11_" gradientUnits="userSpaceOnUse" x1="-114.7109" y1="-70.1601" x2="-113.7109" y2="-70.1601" gradientTransform="matrix(33.4364 -98.3585 -98.3585 -33.4364 -2754.0139 -13382.6328)">
		<stop offset="0" style="stop-color:#8BE1DA"/>
		<stop offset="1" style="stop-color:#5F90FC"/>
	</linearGradient>
	<polygon class="st10" points="348.9,254 307.4,212.4 302.5,153.5 342.3,197.7  "/>
	
		<linearGradient id="SVGID_12_" gradientUnits="userSpaceOnUse" x1="-114.7109" y1="-70.1556" x2="-113.7109" y2="-70.1556" gradientTransform="matrix(-57.2106 159.4183 159.4183 57.2106 4951.4863 22453.4688)">
		<stop offset="0" style="stop-color:#8BE1DA"/>
		<stop offset="1" style="stop-color:#5F90FC"/>
	</linearGradient>
	<polygon class="st11" points="289.1,282.9 348.9,254 307.4,212.4 241.4,246.4  "/>
	
		<linearGradient id="SVGID_13_" gradientUnits="userSpaceOnUse" x1="-115.2143" y1="-69.2474" x2="-114.7165" y2="-69.2474" gradientTransform="matrix(41.5309 -177.3159 -177.3159 -41.5309 -7425.52 -22949.4336)">
		<stop offset="0" style="stop-color:#8BE1DA"/>
		<stop offset="1" style="stop-color:#5F90FC"/>
	</linearGradient>
	<polygon class="st12" points="94.3,280.8 96.7,310.1 63.9,327 63.9,298  "/>
	
		<linearGradient id="SVGID_14_" gradientUnits="userSpaceOnUse" x1="-116.1058" y1="-68.4727" x2="-115.608" y2="-68.4727" gradientTransform="matrix(33.4364 -98.3585 -98.3585 -33.4364 -2754.0139 -13382.6328)">
		<stop offset="0" style="stop-color:#8BE1DA"/>
		<stop offset="1" style="stop-color:#5F90FC"/>
	</linearGradient>
	<polygon class="st13" points="117.4,330.8 96.7,310.1 94.3,280.8 114.1,302.8  "/>
	
		<linearGradient id="SVGID_15_" gradientUnits="userSpaceOnUse" x1="-113.559" y1="-71.135" x2="-113.0612" y2="-71.135" gradientTransform="matrix(-57.2106 159.4183 159.4183 57.2106 4951.4863 22453.4688)">
		<stop offset="0" style="stop-color:#8BE1DA"/>
		<stop offset="1" style="stop-color:#5F90FC"/>
	</linearGradient>
	<polygon class="st14" points="87.6,345.2 117.4,330.8 96.7,310.1 63.9,327  "/>
	
		<linearGradient id="SVGID_16_" gradientUnits="userSpaceOnUse" x1="-113.0702" y1="-71.6405" x2="-112.5724" y2="-71.6405" gradientTransform="matrix(41.5309 -177.3159 -177.3159 -41.5309 -7425.52 -22949.4336)">
		<stop offset="0" style="stop-color:#8BE1DA"/>
		<stop offset="1" style="stop-color:#5F90FC"/>
	</linearGradient>
	<polygon class="st15" points="607.7,0 610.1,29.3 577.3,46.2 577.3,17.2  "/>
	
		<linearGradient id="SVGID_17_" gradientUnits="userSpaceOnUse" x1="-111.9563" y1="-72.2816" x2="-111.4585" y2="-72.2816" gradientTransform="matrix(33.4364 -98.3585 -98.3585 -33.4364 -2754.0139 -13382.6328)">
		<stop offset="0" style="stop-color:#8BE1DA"/>
		<stop offset="1" style="stop-color:#5F90FC"/>
	</linearGradient>
	<polygon class="st16" points="630.8,50 610.1,29.3 607.7,0 627.5,22  "/>
	
		<linearGradient id="SVGID_18_" gradientUnits="userSpaceOnUse" x1="-116.1431" y1="-68.842" x2="-115.6453" y2="-68.842" gradientTransform="matrix(-57.2106 159.4183 159.4183 57.2106 4951.4863 22453.4688)">
		<stop offset="0" style="stop-color:#8BE1DA"/>
		<stop offset="1" style="stop-color:#5F90FC"/>
	</linearGradient>
	<polygon class="st17" points="601,64.4 630.8,50 610.1,29.3 577.3,46.2  "/>
	
		<linearGradient id="SVGID_19_" gradientUnits="userSpaceOnUse" x1="-114.3854" y1="-72.3641" x2="-113.8876" y2="-72.3641" gradientTransform="matrix(41.5309 -177.3159 -177.3159 -41.5309 -7425.52 -22949.4336)">
		<stop offset="0" style="stop-color:#8BE1DA"/>
		<stop offset="1" style="stop-color:#5F90FC"/>
	</linearGradient>
	<polygon class="st18" points="681.4,263.3 683.8,292.6 651,309.5 651,280.4  "/>
	
		<linearGradient id="SVGID_20_" gradientUnits="userSpaceOnUse" x1="-114.1272" y1="-73.7688" x2="-113.6294" y2="-73.7688" gradientTransform="matrix(33.4364 -98.3585 -98.3585 -33.4364 -2754.0139 -13382.6328)">
		<stop offset="0" style="stop-color:#8BE1DA"/>
		<stop offset="1" style="stop-color:#5F90FC"/>
	</linearGradient>
	<polygon class="st19" points="704.5,313.2 683.8,292.6 681.4,263.3 701.2,285.2  "/>
	
		<linearGradient id="SVGID_21_" gradientUnits="userSpaceOnUse" x1="-114.8272" y1="-67.9075" x2="-114.3294" y2="-67.9075" gradientTransform="matrix(-57.2106 159.4183 159.4183 57.2106 4951.4863 22453.4688)">
		<stop offset="0" style="stop-color:#8BE1DA"/>
		<stop offset="1" style="stop-color:#5F90FC"/>
	</linearGradient>
	<polygon class="st20" points="674.7,327.7 704.5,313.2 683.8,292.6 651,309.5  "/>
	
		<linearGradient id="SVGID_22_" gradientUnits="userSpaceOnUse" x1="-114.7109" y1="-70.1601" x2="-113.7109" y2="-70.1601" gradientTransform="matrix(32.0471 -136.825 -136.825 -32.0471 -5469.5146 -17645.3398)">
		<stop offset="0" style="stop-color:#9BC1F7"/>
		<stop offset="1" style="stop-color:#B78FFC"/>
	</linearGradient>
	<polygon class="st21" points="494.4,182.4 498.2,227.8 447.2,254.1 447.2,209  "/>
	
		<linearGradient id="SVGID_23_" gradientUnits="userSpaceOnUse" x1="-114.7109" y1="-70.1566" x2="-113.7109" y2="-70.1566" gradientTransform="matrix(25.801 -75.8978 -75.8978 -25.801 -1864.0121 -10262.1426)">
		<stop offset="0" style="stop-color:#9BC1F7"/>
		<stop offset="1" style="stop-color:#B78FFC"/>
	</linearGradient>
	<polygon class="st22" points="530.3,259.9 498.2,227.8 494.4,182.4 525.2,216.5  "/>
	
		<linearGradient id="SVGID_24_" gradientUnits="userSpaceOnUse" x1="-114.7109" y1="-70.1609" x2="-113.7109" y2="-70.1609" gradientTransform="matrix(49.6591 -153.0999 -153.0999 -49.6591 -4570.7974 -20745.0996)">
		<stop offset="0" style="stop-color:#B284FC"/>
		<stop offset="1" style="stop-color:#6356ED"/>
	</linearGradient>
	<polygon class="st23" points="484,282.3 530.3,259.9 498.2,227.8 447.2,254.1  "/>
	
		<linearGradient id="SVGID_25_" gradientUnits="userSpaceOnUse" x1="-114.7109" y1="-70.1578" x2="-113.7109" y2="-70.1578" gradientTransform="matrix(-15.4276 132.5808 132.5808 15.4276 8143.7749 16615.5332)">
		<stop offset="0" style="stop-color:#9BC1F7"/>
		<stop offset="1" style="stop-color:#B78FFC"/>
	</linearGradient>
	<polygon class="st24" points="580.3,306 595.4,391.4 634.1,423.9 619.7,341.8  "/>
	
		<linearGradient id="SVGID_26_" gradientUnits="userSpaceOnUse" x1="-114.7109" y1="-70.1567" x2="-113.7109" y2="-70.1567" gradientTransform="matrix(-39.0511 250.6982 250.6982 39.0511 13679.2764 31742.3066)">
		<stop offset="0" style="stop-color:#9BC1F7"/>
		<stop offset="1" style="stop-color:#B78FFC"/>
	</linearGradient>
	<polygon class="st25" points="521.9,415.7 525.3,414.6 595.4,391.4 580.3,306 509.8,330.3  "/>
	
		<linearGradient id="SVGID_27_" gradientUnits="userSpaceOnUse" x1="-114.7109" y1="-70.1608" x2="-113.7109" y2="-70.1608" gradientTransform="matrix(-38.0868 60.264 60.264 38.0868 464.2849 9962.1465)">
		<stop offset="0" style="stop-color:#B284FC"/>
		<stop offset="1" style="stop-color:#6356ED"/>
	</linearGradient>
	<polygon class="st26" points="572.8,441.9 634.1,423.9 595.4,391.4 521.9,415.7  "/>
	
		<linearGradient id="SVGID_28_" gradientUnits="userSpaceOnUse" x1="-114.7109" y1="-70.1585" x2="-113.7109" y2="-70.1585" gradientTransform="matrix(58.9287 -167.3696 -167.3696 -58.9287 -4528.314 -22709.127)">
		<stop offset="0" style="stop-color:#FEB883"/>
		<stop offset="0.5076" style="stop-color:#ED9AC0"/>
		<stop offset="1" style="stop-color:#B78FFC"/>
	</linearGradient>
	<polygon class="st27" points="468.1,482.9 476.2,556.5 507.5,575.6 497.5,510.6  "/>
	
		<linearGradient id="SVGID_29_" gradientUnits="userSpaceOnUse" x1="-114.7109" y1="-70.1558" x2="-113.7109" y2="-70.1558" gradientTransform="matrix(18.2254 -127.8813 -127.8813 -18.2254 -6451.2656 -15347.3252)">
		<stop offset="0" style="stop-color:#FEB883"/>
		<stop offset="0.5076" style="stop-color:#ED9AC0"/>
		<stop offset="1" style="stop-color:#B78FFC"/>
	</linearGradient>
	<polygon class="st28" points="408.2,575.6 476.2,556.5 468.1,482.9 403.7,501  "/>
	
		<linearGradient id="SVGID_30_" gradientUnits="userSpaceOnUse" x1="-114.1365" y1="-69.5815" x2="-113.1365" y2="-69.5815" gradientTransform="matrix(0.4556 0 0 -0.4556 622.7164 542.6912)">
		<stop offset="0" style="stop-color:#FEB883"/>
		<stop offset="0.5076" style="stop-color:#ED9AC0"/>
		<stop offset="1" style="stop-color:#B78FFC"/>
	</linearGradient>
	<polygon class="st29" points="445.7,592.3 507.5,575.6 476.2,556.5 408.2,575.6  "/>
	
		<linearGradient id="SVGID_31_" gradientUnits="userSpaceOnUse" x1="-114.7109" y1="-70.156" x2="-113.7109" y2="-70.156" gradientTransform="matrix(76.8886 -218.3794 -218.3794 -76.8886 -6120.6816 -29842.9629)">
		<stop offset="0" style="stop-color:#8BE1DA"/>
		<stop offset="1" style="stop-color:#5F90FC"/>
	</linearGradient>
	<polygon class="st30" points="398.1,416.6 408.8,512.6 449.6,537.6 436.5,452.8  "/>
	
		<linearGradient id="SVGID_32_" gradientUnits="userSpaceOnUse" x1="-114.7109" y1="-70.1537" x2="-113.7109" y2="-70.1537" gradientTransform="matrix(23.78 -166.8561 -166.8561 -23.78 -8629.7813 -20237.6094)">
		<stop offset="0" style="stop-color:#8BE1DA"/>
		<stop offset="1" style="stop-color:#5F90FC"/>
	</linearGradient>
	<polygon class="st31" points="320,537.6 408.8,512.6 398.1,416.6 314.1,440.3  "/>
	
		<linearGradient id="SVGID_33_" gradientUnits="userSpaceOnUse" x1="-114.7109" y1="-70.1558" x2="-113.7109" y2="-70.1558" gradientTransform="matrix(-63.6388 118.2781 118.2781 63.6388 1437.1321 18468.7188)">
		<stop offset="0" style="stop-color:#8BE1DA"/>
		<stop offset="1" style="stop-color:#5F90FC"/>
	</linearGradient>
	<polygon class="st32" points="368.9,559.4 449.6,537.6 408.8,512.6 320,537.6  "/>
	
		<linearGradient id="SVGID_34_" gradientUnits="userSpaceOnUse" x1="-114.7109" y1="-70.1577" x2="-113.7109" y2="-70.1577" gradientTransform="matrix(91.5317 -259.969 -259.969 -91.5317 -7184.1377 -35617.5859)">
		<stop offset="0" style="stop-color:#FEB883"/>
		<stop offset="0.5076" style="stop-color:#ED9AC0"/>
		<stop offset="1" style="stop-color:#B78FFC"/>
	</linearGradient>
	<polygon class="st33" points="576.8,404.4 589.5,518.8 638.1,548.5 622.5,447.5  "/>
	
		<linearGradient id="SVGID_35_" gradientUnits="userSpaceOnUse" x1="-114.7109" y1="-70.1563" x2="-113.7109" y2="-70.1563" gradientTransform="matrix(28.3088 -198.6333 -198.6333 -28.3088 -10170.9541 -24183.5176)">
		<stop offset="0" style="stop-color:#FEB883"/>
		<stop offset="0.5076" style="stop-color:#ED9AC0"/>
		<stop offset="1" style="stop-color:#B78FFC"/>
	</linearGradient>
	<polygon class="st34" points="483.8,548.5 589.5,518.8 576.8,404.4 476.7,432.7  "/>
	
		<linearGradient id="SVGID_36_" gradientUnits="userSpaceOnUse" x1="-114.7109" y1="-70.1527" x2="-113.7109" y2="-70.1527" gradientTransform="matrix(-67.4957 103.1719 103.1719 67.4957 93.263 17061.8047)">
		<stop offset="0" style="stop-color:#FEB883"/>
		<stop offset="0.5076" style="stop-color:#ED9AC0"/>
		<stop offset="1" style="stop-color:#B78FFC"/>
	</linearGradient>
	<polygon class="st35" points="542,574.4 638.1,548.5 589.5,518.8 483.8,548.5  "/>
	
		<linearGradient id="SVGID_37_" gradientUnits="userSpaceOnUse" x1="-114.7109" y1="-70.1559" x2="-113.7109" y2="-70.1559" gradientTransform="matrix(-33.4264 139.491 139.491 33.4264 6502.9839 18745.668)">
		<stop offset="0" style="stop-color:#8BE1DA"/>
		<stop offset="1" style="stop-color:#5F90FC"/>
	</linearGradient>
	<polygon class="st36" points="511.5,362.4 524.2,476.8 574.2,506.6 558.6,405.7  "/>
	
		<linearGradient id="SVGID_38_" gradientUnits="userSpaceOnUse" x1="-114.7109" y1="-70.159" x2="-113.7109" y2="-70.159" gradientTransform="matrix(-70.0669 181.2741 181.2741 70.0669 5182.6069 26055.1328)">
		<stop offset="0" style="stop-color:#8BE1DA"/>
		<stop offset="1" style="stop-color:#5F90FC"/>
	</linearGradient>
	<polygon class="st37" points="418.5,506.5 524.2,476.8 511.5,362.4 411.4,390.7  "/>
	
		<linearGradient id="SVGID_39_" gradientUnits="userSpaceOnUse" x1="-114.7109" y1="-70.157" x2="-113.7109" y2="-70.157" gradientTransform="matrix(-21.2129 69.4241 69.4241 21.2129 2951.6377 9899.4043)">
		<stop offset="0" style="stop-color:#8BE1DA"/>
		<stop offset="1" style="stop-color:#5F90FC"/>
	</linearGradient>
	<polygon class="st38" points="476.7,532.4 574.2,506.6 524.2,476.8 418.5,506.5  "/>
	
		<linearGradient id="SVGID_40_" gradientUnits="userSpaceOnUse" x1="-114.7109" y1="-70.157" x2="-113.7109" y2="-70.157" gradientTransform="matrix(57.9247 -247.3091 -247.3091 -57.9247 -10342.1553 -32158.873)">
		<stop offset="0" style="stop-color:#FEB883"/>
		<stop offset="0.5076" style="stop-color:#ED9AC0"/>
		<stop offset="1" style="stop-color:#B78FFC"/>
	</linearGradient>
	<polygon class="st39" points="436.7,64.4 443.6,146.5 351.5,193.9 351.5,112.5  "/>
	
		<linearGradient id="SVGID_41_" gradientUnits="userSpaceOnUse" x1="-114.7109" y1="-70.1584" x2="-113.7109" y2="-70.1584" gradientTransform="matrix(46.635 -137.1842 -137.1842 -46.635 -3825.9524 -18815.0508)">
		<stop offset="0" style="stop-color:#FEB883"/>
		<stop offset="0.5076" style="stop-color:#ED9AC0"/>
		<stop offset="1" style="stop-color:#B78FFC"/>
	</linearGradient>
	<polygon class="st40" points="501.5,204.5 443.6,146.5 436.7,64.4 492.3,126  "/>
	
		<linearGradient id="SVGID_42_" gradientUnits="userSpaceOnUse" x1="-114.7109" y1="-70.1557" x2="-113.7109" y2="-70.1557" gradientTransform="matrix(-127.2775 94.0118 94.0118 127.2775 -7499.8154 19854.7676)">
		<stop offset="0" style="stop-color:#FEB883"/>
		<stop offset="0.5076" style="stop-color:#ED9AC0"/>
		<stop offset="1" style="stop-color:#B78FFC"/>
	</linearGradient>
	<polygon class="st41" points="418,244.9 501.5,204.5 443.6,146.5 351.5,193.9  "/>
	
		<linearGradient id="SVGID_43_" gradientUnits="userSpaceOnUse" x1="-114.7119" y1="-70.1576" x2="-113.7119" y2="-70.1576" gradientTransform="matrix(-2.3453 -152.4461 -152.4461 2.3453 -10486.7334 -16917.7012)">
		<stop offset="0" style="stop-color:#FEB883"/>
		<stop offset="0.5076" style="stop-color:#ED9AC0"/>
		<stop offset="1" style="stop-color:#B78FFC"/>
	</linearGradient>
	<polygon class="st42" points="441.9,290.2 505.3,265.2 511.5,338.3 441.9,361.5  "/>
	
		<linearGradient id="SVGID_44_" gradientUnits="userSpaceOnUse" x1="-114.7109" y1="-70.1544" x2="-113.7109" y2="-70.1544" gradientTransform="matrix(126.817 0 0 -126.817 15033.1162 -8582.9678)">
		<stop offset="0" style="stop-color:#FEB883"/>
		<stop offset="0.5076" style="stop-color:#ED9AC0"/>
		<stop offset="1" style="stop-color:#B78FFC"/>
	</linearGradient>
	<polygon class="st43" points="505.3,265.2 546.3,293.7 552.6,362.4 511.5,337.5  "/>
	
		<linearGradient id="SVGID_45_" gradientUnits="userSpaceOnUse" x1="-114.7109" y1="-70.1536" x2="-113.7109" y2="-70.1536" gradientTransform="matrix(-37.6047 94.976 94.976 37.6047 2871.5344 13830.5469)">
		<stop offset="0" style="stop-color:#FEB883"/>
		<stop offset="0.5076" style="stop-color:#ED9AC0"/>
		<stop offset="1" style="stop-color:#B78FFC"/>
	</linearGradient>
	<polygon class="st44" points="441.4,360.7 511.5,337.5 552.6,362.4 487.9,382.1  "/>
	
		<linearGradient id="SVGID_46_" gradientUnits="userSpaceOnUse" x1="-114.7113" y1="-70.1556" x2="-113.7113" y2="-70.1556" gradientTransform="matrix(7.6765 -205.8695 -205.8695 -7.6765 -13299.5811 -23712.291)">
		<stop offset="0" style="stop-color:#8BE1DA"/>
		<stop offset="1" style="stop-color:#5F90FC"/>
	</linearGradient>
	<polygon class="st45" points="301.2,270.2 301.2,353.9 230,375.6 236.6,295  "/>
	
		<linearGradient id="SVGID_47_" gradientUnits="userSpaceOnUse" x1="-114.7109" y1="-70.1589" x2="-113.7109" y2="-70.1589" gradientTransform="matrix(122.1389 -192.5749 -192.5749 -122.1389 784.449 -30267.5176)">
		<stop offset="0" style="stop-color:#8BE1DA"/>
		<stop offset="1" style="stop-color:#5F90FC"/>
	</linearGradient>
	<polygon class="st46" points="355.3,376.4 301.2,353.1 301.2,270.2 355.3,301.1  "/>
	
		<linearGradient id="SVGID_48_" gradientUnits="userSpaceOnUse" x1="-114.7109" y1="-70.1544" x2="-113.7109" y2="-70.1544" gradientTransform="matrix(-74.5666 132.42 132.42 74.5666 1079.2841 20707.2793)">
		<stop offset="0" style="stop-color:#8BE1DA"/>
		<stop offset="1" style="stop-color:#5F90FC"/>
	</linearGradient>
	<polygon class="st47" points="290,396.7 355.3,376.4 301.2,353.1 230,374.7  "/>
	
		<linearGradient id="SVGID_49_" gradientUnits="userSpaceOnUse" x1="-114.7109" y1="-70.1559" x2="-113.7109" y2="-70.1559" gradientTransform="matrix(10.3799 -278.3697 -278.3697 -10.3799 -18108.4355 -32044.7559)">
		<stop offset="0" style="stop-color:#FEB883"/>
		<stop offset="0.5076" style="stop-color:#ED9AC0"/>
		<stop offset="1" style="stop-color:#B78FFC"/>
	</linearGradient>
	<polygon class="st48" points="282.2,383.6 282.2,496.8 185.9,526.1 194.9,417.1  "/>
	
		<linearGradient id="SVGID_50_" gradientUnits="userSpaceOnUse" x1="-114.7109" y1="-70.1556" x2="-113.7109" y2="-70.1556" gradientTransform="matrix(165.1521 -260.3931 -260.3931 -165.1521 936.7552 -40908.3242)">
		<stop offset="0" style="stop-color:#FEB883"/>
		<stop offset="0.5076" style="stop-color:#ED9AC0"/>
		<stop offset="1" style="stop-color:#B78FFC"/>
	</linearGradient>
	<polygon class="st49" points="355.3,527.3 282.2,495.6 282.2,383.6 355.3,425.3  "/>
	
		<linearGradient id="SVGID_51_" gradientUnits="userSpaceOnUse" x1="-114.7109" y1="-70.1574" x2="-113.7109" y2="-70.1574" gradientTransform="matrix(-136.4377 149.4547 149.4547 136.4377 -4801.4175 27139.8242)">
		<stop offset="0" style="stop-color:#FEB883"/>
		<stop offset="0.5076" style="stop-color:#ED9AC0"/>
		<stop offset="1" style="stop-color:#B78FFC"/>
	</linearGradient>
	<polygon class="st50" points="267.1,554.6 355.3,527.3 282.2,495.6 185.9,524.9  "/>
	
		<linearGradient id="SVGID_52_" gradientUnits="userSpaceOnUse" x1="-114.7109" y1="-70.1586" x2="-113.7109" y2="-70.1586" gradientTransform="matrix(-2.5784 -167.5958 -167.5958 2.5784 -11647.7734 -18685.6992)">
		<stop offset="0" style="stop-color:#9BC1F7"/>
		<stop offset="1" style="stop-color:#B78FFC"/>
	</linearGradient>
	<polygon class="st51" points="367.1,231.9 436.7,204.5 443.6,284.9 367.1,310.4  "/>
	
		<linearGradient id="SVGID_53_" gradientUnits="userSpaceOnUse" x1="-114.7109" y1="-70.1547" x2="-113.7109" y2="-70.1547" gradientTransform="matrix(99.3828 -131.3261 -131.3261 -99.3828 2615.6653 -21733.5488)">
		<stop offset="0" style="stop-color:#9BC1F7"/>
		<stop offset="1" style="stop-color:#B78FFC"/>
	</linearGradient>
	<polygon class="st52" points="436.7,204.5 481.9,235.9 488.7,311.4 443.6,283.9  "/>
	
		<linearGradient id="SVGID_54_" gradientUnits="userSpaceOnUse" x1="-115.0569" y1="-70.4971" x2="-114.0569" y2="-70.4971" gradientTransform="matrix(0.4906 0 0 -0.4906 602.0974 273.876)">
		<stop offset="0" style="stop-color:#B284FC"/>
		<stop offset="1" style="stop-color:#6356ED"/>
	</linearGradient>
	<polygon class="st53" points="366.6,309.4 443.6,283.9 488.7,311.4 417.6,333  "/>
	
		<linearGradient id="SVGID_55_" gradientUnits="userSpaceOnUse" x1="-114.7093" y1="-70.1584" x2="-113.7093" y2="-70.1584" gradientTransform="matrix(-3.7197 -241.7775 -241.7775 3.7197 -16999.7461 -26936.4453)">
		<stop offset="0" style="stop-color:#9BC1F7"/>
		<stop offset="1" style="stop-color:#B78FFC"/>
	</linearGradient>
	<polygon class="st54" points="333.1,353.9 433.6,314.2 443.5,430.3 333.1,467.1  "/>
	
		<linearGradient id="SVGID_56_" gradientUnits="userSpaceOnUse" x1="-114.7109" y1="-70.1578" x2="-113.7109" y2="-70.1578" gradientTransform="matrix(143.3718 -189.4541 -189.4541 -143.3718 3575.7498 -31333.6582)">
		<stop offset="0" style="stop-color:#9BC1F7"/>
		<stop offset="1" style="stop-color:#B78FFC"/>
	</linearGradient>
	<polygon class="st55" points="433.6,314.2 498.7,359.5 508.6,468.5 443.5,428.9  "/>
	
		<linearGradient id="SVGID_57_" gradientUnits="userSpaceOnUse" x1="-114.4921" y1="-69.9431" x2="-113.4921" y2="-69.9431" gradientTransform="matrix(0.7077 0 0 -0.7077 671.7478 414.7741)">
		<stop offset="0" style="stop-color:#B284FC"/>
		<stop offset="1" style="stop-color:#6356ED"/>
	</linearGradient>
	<polygon class="st56" points="332.4,465.7 443.5,428.9 508.6,468.5 406,499.7  "/>
	
		<linearGradient id="SVGID_58_" gradientUnits="userSpaceOnUse" x1="-114.7075" y1="-70.1621" x2="-113.7075" y2="-70.1621" gradientTransform="matrix(-5.1425 71.9954 71.9954 5.1425 4598.9561 9169.4502)">
		<stop offset="0" style="stop-color:#8BE1DA"/>
		<stop offset="1" style="stop-color:#5F90FC"/>
	</linearGradient>
	<polygon class="st57" points="153.8,570.1 150.8,609 114.7,620.8 121.3,583.1  "/>
	
		<linearGradient id="SVGID_59_" gradientUnits="userSpaceOnUse" x1="-114.7109" y1="-70.1538" x2="-113.7109" y2="-70.1538" gradientTransform="matrix(-67.4957 151.7045 151.7045 67.4957 3100.926 22660.7324)">
		<stop offset="0" style="stop-color:#8BE1DA"/>
		<stop offset="1" style="stop-color:#5F90FC"/>
	</linearGradient>
	<polygon class="st58" points="183.1,588.7 181.7,625.3 150.8,609 153.8,570.1  "/>
	
		<linearGradient id="SVGID_60_" gradientUnits="userSpaceOnUse" x1="-114.7109" y1="-70.1529" x2="-113.7109" y2="-70.1529" gradientTransform="matrix(-45.6399 91.2798 91.2798 45.6399 1352.3843 14223.4854)">
		<stop offset="0" style="stop-color:#8BE1DA"/>
		<stop offset="1" style="stop-color:#5F90FC"/>
	</linearGradient>
	<polygon class="st59" points="147.5,635.9 181.7,625.3 150.8,609 114.7,620.8  "/>
	<path class="st60" d="M425.5,464.3v2.5c0,0.6,0.4,1,1,1c0.6,0,1-0.4,1-1v-2.5c0-0.6-0.4-1-1-1C426,463.3,425.5,463.7,425.5,464.3"/>
	<path class="st60" d="M425.5,654.4v5.1c0,0.6,0.4,1,1,1c0.6,0,1-0.4,1-1v-5.1c0-0.6-0.4-1-1-1C426,653.4,425.5,653.8,425.5,654.4z    M425.5,644.2v5.1c0,0.6,0.4,1,1,1c0.6,0,1-0.4,1-1v-5.1c0-0.6-0.4-1-1-1C426,643.2,425.5,643.7,425.5,644.2z M425.5,634.1v5.1   c0,0.6,0.4,1,1,1c0.6,0,1-0.4,1-1v-5.1c0-0.6-0.4-1-1-1C426,633.1,425.5,633.5,425.5,634.1z M425.5,624v5.1c0,0.6,0.4,1,1,1   c0.6,0,1-0.4,1-1V624c0-0.6-0.4-1-1-1C426,623,425.5,623.4,425.5,624z M425.5,613.8v5.1c0,0.6,0.4,1,1,1c0.6,0,1-0.4,1-1v-5.1   c0-0.6-0.4-1-1-1C426,612.8,425.5,613.3,425.5,613.8z M425.5,603.7v5.1c0,0.6,0.4,1,1,1c0.6,0,1-0.4,1-1v-5.1c0-0.6-0.4-1-1-1   C426,602.7,425.5,603.1,425.5,603.7z M425.5,593.5v5.1c0,0.6,0.4,1,1,1c0.6,0,1-0.4,1-1v-5.1c0-0.6-0.4-1-1-1   C426,592.5,425.5,593,425.5,593.5z M425.5,583.4v5.1c0,0.6,0.4,1,1,1c0.6,0,1-0.4,1-1v-5.1c0-0.6-0.4-1-1-1   C426,582.4,425.5,582.8,425.5,583.4z M425.5,573.3v5.1c0,0.6,0.4,1,1,1c0.6,0,1-0.4,1-1v-5.1c0-0.6-0.4-1-1-1   C426,572.3,425.5,572.7,425.5,573.3z M425.5,563.1v5.1c0,0.6,0.4,1,1,1c0.6,0,1-0.4,1-1v-5.1c0-0.6-0.4-1-1-1   C426,562.1,425.5,562.6,425.5,563.1z M425.5,553v5.1c0,0.6,0.4,1,1,1c0.6,0,1-0.4,1-1V553c0-0.6-0.4-1-1-1   C426,552,425.5,552.4,425.5,553z M425.5,542.8v5.1c0,0.6,0.4,1,1,1c0.6,0,1-0.4,1-1v-5.1c0-0.6-0.4-1-1-1   C426,541.8,425.5,542.3,425.5,542.8z M425.5,532.7v5.1c0,0.6,0.4,1,1,1c0.6,0,1-0.4,1-1v-5.1c0-0.6-0.4-1-1-1   C426,531.7,425.5,532.1,425.5,532.7z M425.5,522.5v5.1c0,0.6,0.4,1,1,1c0.6,0,1-0.4,1-1v-5.1c0-0.6-0.4-1-1-1   C426,521.5,425.5,522,425.5,522.5z M425.5,512.4v5.1c0,0.6,0.4,1,1,1c0.6,0,1-0.4,1-1v-5.1c0-0.6-0.4-1-1-1   C426,511.4,425.5,511.9,425.5,512.4z M425.5,502.3v5.1c0,0.6,0.4,1,1,1c0.6,0,1-0.4,1-1v-5.1c0-0.6-0.4-1-1-1   C426,501.3,425.5,501.7,425.5,502.3z M425.5,492.1v5.1c0,0.6,0.4,1,1,1c0.6,0,1-0.4,1-1v-5.1c0-0.6-0.4-1-1-1   C426,491.1,425.5,491.6,425.5,492.1z M425.5,482v5.1c0,0.6,0.4,1,1,1c0.6,0,1-0.4,1-1V482c0-0.6-0.4-1-1-1   C426,481,425.5,481.4,425.5,482z M425.5,471.8v5.1c0,0.6,0.4,1,1,1c0.6,0,1-0.4,1-1v-5.1c0-0.6-0.4-1-1-1   C426,470.8,425.5,471.3,425.5,471.8z"/>
	<path class="st60" d="M425.5,664.5v2.5c0,0.6,0.4,1,1,1c0.6,0,1-0.4,1-1v-2.5c0-0.6-0.4-1-1-1C426,663.5,425.5,664,425.5,664.5"/>
	<path class="st60" d="M690.4,382.7l-2.4,0.8c-0.5,0.2-0.8,0.8-0.6,1.3c0.2,0.5,0.8,0.8,1.3,0.6l2.4-0.8c0.5-0.2,0.8-0.8,0.6-1.3   C691.5,382.7,690.9,382.5,690.4,382.7"/>
	<path class="st60" d="M557.9,430.1l-4.8,1.7c-0.5,0.2-0.8,0.8-0.6,1.3c0.2,0.5,0.8,0.8,1.3,0.6l4.8-1.7c0.5-0.2,0.8-0.8,0.6-1.3   C559,430.2,558.4,429.9,557.9,430.1z M567.6,426.6l-4.8,1.7c-0.5,0.2-0.8,0.8-0.6,1.3c0.2,0.5,0.8,0.8,1.3,0.6l4.8-1.7   c0.5-0.2,0.8-0.8,0.6-1.3C568.6,426.7,568.1,426.4,567.6,426.6z M577.2,423.2l-4.8,1.7c-0.5,0.2-0.8,0.8-0.6,1.3   c0.2,0.5,0.8,0.8,1.3,0.6l4.8-1.7c0.5-0.2,0.8-0.8,0.6-1.3C578.3,423.3,577.7,423,577.2,423.2z M586.8,419.7l-4.8,1.7   c-0.5,0.2-0.8,0.8-0.6,1.3c0.2,0.5,0.8,0.8,1.3,0.6l4.8-1.7c0.5-0.2,0.8-0.8,0.6-1.3C587.9,419.8,587.4,419.5,586.8,419.7z    M596.5,416.3l-4.8,1.7c-0.5,0.2-0.8,0.8-0.6,1.3c0.2,0.5,0.8,0.8,1.3,0.6l4.8-1.7c0.5-0.2,0.8-0.8,0.6-1.3   C597.6,416.4,597,416.1,596.5,416.3z M606.1,412.8l-4.8,1.7c-0.5,0.2-0.8,0.8-0.6,1.3c0.2,0.5,0.8,0.8,1.3,0.6l4.8-1.7   c0.5-0.2,0.8-0.8,0.6-1.3C607.2,412.9,606.6,412.6,606.1,412.8z M615.7,409.4l-4.8,1.7c-0.5,0.2-0.8,0.8-0.6,1.3   c0.2,0.5,0.8,0.8,1.3,0.6l4.8-1.7c0.5-0.2,0.8-0.8,0.6-1.3C616.8,409.5,616.3,409.2,615.7,409.4z M625.4,405.9l-4.8,1.7   c-0.5,0.2-0.8,0.8-0.6,1.3c0.2,0.5,0.8,0.8,1.3,0.6l4.8-1.7c0.5-0.2,0.8-0.8,0.6-1.3C626.5,406,625.9,405.7,625.4,405.9z    M635,402.5l-4.8,1.7c-0.5,0.2-0.8,0.8-0.6,1.3c0.2,0.5,0.8,0.8,1.3,0.6l4.8-1.7c0.5-0.2,0.8-0.8,0.6-1.3   C636.1,402.6,635.5,402.3,635,402.5z M644.7,399l-4.8,1.7c-0.5,0.2-0.8,0.8-0.6,1.3c0.2,0.5,0.8,0.8,1.3,0.6l4.8-1.7   c0.5-0.2,0.8-0.8,0.6-1.3C645.8,399.1,645.2,398.8,644.7,399z M654.3,395.6l-4.8,1.7c-0.5,0.2-0.8,0.8-0.6,1.3   c0.2,0.5,0.8,0.8,1.3,0.6l4.8-1.7c0.5-0.2,0.8-0.8,0.6-1.3C655.4,395.7,654.8,395.4,654.3,395.6z M663.9,392.1l-4.8,1.7   c-0.5,0.2-0.8,0.8-0.6,1.3c0.2,0.5,0.8,0.8,1.3,0.6l4.8-1.7c0.5-0.2,0.8-0.8,0.6-1.3C665,392.2,664.5,391.9,663.9,392.1z    M673.6,388.7l-4.8,1.7c-0.5,0.2-0.8,0.8-0.6,1.3c0.2,0.5,0.8,0.8,1.3,0.6l4.8-1.7c0.5-0.2,0.8-0.8,0.6-1.3   C674.7,388.8,674.1,388.5,673.6,388.7z M683.2,385.2l-4.8,1.7c-0.5,0.2-0.8,0.8-0.6,1.3c0.2,0.5,0.8,0.8,1.3,0.6l4.8-1.7   c0.5-0.2,0.8-0.8,0.6-1.3C684.3,385.3,683.7,385,683.2,385.2z"/>
	<path class="st60" d="M548.3,433.5l-2.4,0.8c-0.5,0.2-0.8,0.8-0.6,1.3s0.8,0.8,1.3,0.6l2.4-0.8c0.5-0.2,0.8-0.8,0.6-1.3   C549.4,433.6,548.8,433.4,548.3,433.5"/>
	<path class="st60" d="M611.6,280.5l-2.4,0.8c-0.5,0.2-0.8,0.8-0.6,1.3s0.8,0.8,1.3,0.6l2.4-0.8c0.5-0.2,0.8-0.8,0.6-1.3   C612.7,280.6,612.1,280.3,611.6,280.5"/>
	<path class="st60" d="M544.4,304.6l-5,1.8c-0.5,0.2-0.8,0.8-0.6,1.3c0.2,0.5,0.8,0.8,1.3,0.6l5-1.8c0.5-0.2,0.8-0.8,0.6-1.3   C545.5,304.7,544.9,304.4,544.4,304.6z M554.4,301l-5,1.8c-0.5,0.2-0.8,0.8-0.6,1.3c0.2,0.5,0.8,0.8,1.3,0.6l5-1.8   c0.5-0.2,0.8-0.8,0.6-1.3S554.9,300.8,554.4,301z M564.4,297.4l-5,1.8c-0.5,0.2-0.8,0.8-0.6,1.3c0.2,0.5,0.8,0.8,1.3,0.6l5-1.8   c0.5-0.2,0.8-0.8,0.6-1.3C565.4,297.5,564.9,297.2,564.4,297.4z M574.3,293.9l-5,1.8c-0.5,0.2-0.8,0.8-0.6,1.3   c0.2,0.5,0.8,0.8,1.3,0.6l5-1.8c0.5-0.2,0.8-0.8,0.6-1.3C575.4,293.9,574.9,293.7,574.3,293.9z M584.3,290.3l-5,1.8   c-0.5,0.2-0.8,0.8-0.6,1.3c0.2,0.5,0.8,0.8,1.3,0.6l5-1.8c0.5-0.2,0.8-0.8,0.6-1.3C585.4,290.4,584.8,290.1,584.3,290.3z    M594.3,286.7l-5,1.8c-0.5,0.2-0.8,0.8-0.6,1.3c0.2,0.5,0.8,0.8,1.3,0.6l5-1.8c0.5-0.2,0.8-0.8,0.6-1.3   C595.4,286.8,594.8,286.5,594.3,286.7z M604.3,283.1l-5,1.8c-0.5,0.2-0.8,0.8-0.6,1.3c0.2,0.5,0.8,0.8,1.3,0.6l5-1.8   c0.5-0.2,0.8-0.8,0.6-1.3C605.4,283.2,604.8,282.9,604.3,283.1z"/>
	<path class="st60" d="M534.4,308.2l-2.4,0.8c-0.5,0.2-0.8,0.8-0.6,1.3c0.2,0.5,0.8,0.8,1.3,0.6l2.4-0.8c0.5-0.2,0.8-0.8,0.6-1.3   C535.5,308.2,534.9,308,534.4,308.2"/>
	<path class="st60" d="M742.2,269.2l-2.3,0.9c-0.5,0.2-0.8,0.8-0.6,1.3c0.2,0.5,0.8,0.8,1.3,0.6l2.3-0.9c0.5-0.2,0.8-0.8,0.6-1.3   C743.3,269.3,742.7,269.1,742.2,269.2"/>
	<path class="st60" d="M701.3,284.5l-4.3,1.6c-0.5,0.2-0.8,0.8-0.6,1.3c0.2,0.5,0.8,0.8,1.3,0.6l4.3-1.6c0.5-0.2,0.8-0.8,0.6-1.3   C702.4,284.6,701.8,284.3,701.3,284.5z M709.9,281.3l-4.3,1.6c-0.5,0.2-0.8,0.8-0.6,1.3c0.2,0.5,0.8,0.8,1.3,0.6l4.3-1.6   c0.5-0.2,0.8-0.8,0.6-1.3C711,281.4,710.4,281.1,709.9,281.3z M718.4,278.1l-4.3,1.6c-0.5,0.2-0.8,0.8-0.6,1.3   c0.2,0.5,0.8,0.8,1.3,0.6l4.3-1.6c0.5-0.2,0.8-0.8,0.6-1.3C719.5,278.2,719,277.9,718.4,278.1z M727,274.9l-4.3,1.6   c-0.5,0.2-0.8,0.8-0.6,1.3c0.2,0.5,0.8,0.8,1.3,0.6l4.3-1.6c0.5-0.2,0.8-0.8,0.6-1.3C728.1,275,727.5,274.7,727,274.9z    M735.6,271.7l-4.3,1.6c-0.5,0.2-0.8,0.8-0.6,1.3c0.2,0.5,0.8,0.8,1.3,0.6l4.3-1.6c0.5-0.2,0.8-0.8,0.6-1.3   C736.7,271.8,736.1,271.5,735.6,271.7z"/>
	<path class="st60" d="M692.7,287.7l-2.3,0.9c-0.5,0.2-0.8,0.8-0.6,1.3c0.2,0.5,0.8,0.8,1.3,0.6l2.3-0.9c0.5-0.2,0.8-0.8,0.6-1.3   C693.8,287.8,693.2,287.5,692.7,287.7"/>
	<path class="st60" d="M542.4,98.9l-2.3,1.1c-0.5,0.2-0.7,0.8-0.5,1.3c0.2,0.5,0.8,0.7,1.3,0.5l2.3-1.1c0.5-0.2,0.7-0.8,0.5-1.3   C543.5,98.9,542.9,98.6,542.4,98.9"/>
	<path class="st60" d="M478.6,129.4l-4.7,2.3c-0.5,0.2-0.7,0.8-0.5,1.3c0.2,0.5,0.8,0.7,1.3,0.5l4.7-2.3c0.5-0.2,0.7-0.8,0.5-1.3   C479.7,129.4,479.1,129.2,478.6,129.4z M488,124.9l-4.7,2.3c-0.5,0.2-0.7,0.8-0.5,1.3c0.2,0.5,0.8,0.7,1.3,0.5l4.7-2.3   c0.5-0.2,0.7-0.8,0.5-1.3C489.1,124.9,488.5,124.6,488,124.9z M497.5,120.4l-4.7,2.3c-0.5,0.2-0.7,0.8-0.5,1.3   c0.2,0.5,0.8,0.7,1.3,0.5l4.7-2.3c0.5-0.2,0.7-0.8,0.5-1.3C498.6,120.3,498,120.1,497.5,120.4z M507,115.8l-4.7,2.3   c-0.5,0.2-0.7,0.8-0.5,1.3c0.2,0.5,0.8,0.7,1.3,0.5l4.7-2.3c0.5-0.2,0.7-0.8,0.5-1.3C508.1,115.8,507.5,115.6,507,115.8z    M516.5,111.3l-4.7,2.3c-0.5,0.2-0.7,0.8-0.5,1.3c0.2,0.5,0.8,0.7,1.3,0.5l4.7-2.3c0.5-0.2,0.7-0.8,0.5-1.3   C517.6,111.3,517,111.1,516.5,111.3z M525.9,106.8l-4.7,2.3c-0.5,0.2-0.7,0.8-0.5,1.3c0.2,0.5,0.8,0.7,1.3,0.5l4.7-2.3   c0.5-0.2,0.7-0.8,0.5-1.3C527,106.7,526.4,106.5,525.9,106.8z M535.4,102.2l-4.7,2.3c-0.5,0.2-0.7,0.8-0.5,1.3   c0.2,0.5,0.8,0.7,1.3,0.5l4.7-2.3c0.5-0.2,0.7-0.8,0.5-1.3C536.5,102.2,535.9,102,535.4,102.2z"/>
	<path class="st60" d="M469.1,134l-2.3,1.1c-0.5,0.2-0.7,0.8-0.5,1.3c0.2,0.5,0.8,0.7,1.3,0.5l2.3-1.1c0.5-0.2,0.7-0.8,0.5-1.3   C470.2,133.9,469.6,133.7,469.1,134"/>
	<path class="st60" d="M195.9,226.7v2.5c0,0.6,0.4,1,1,1c0.6,0,1-0.4,1-1v-2.5c0-0.6-0.4-1-1-1C196.3,225.7,195.9,226.1,195.9,226.7   "/>
	<path class="st60" d="M195.9,306.8v5.2c0,0.6,0.4,1,1,1c0.6,0,1-0.4,1-1v-5.2c0-0.6-0.4-1-1-1C196.3,305.8,195.9,306.3,195.9,306.8   z M195.9,296.5v5.2c0,0.6,0.4,1,1,1c0.6,0,1-0.4,1-1v-5.2c0-0.6-0.4-1-1-1C196.3,295.5,195.9,295.9,195.9,296.5z M195.9,286.1v5.2   c0,0.6,0.4,1,1,1c0.6,0,1-0.4,1-1v-5.2c0-0.6-0.4-1-1-1C196.3,285.1,195.9,285.6,195.9,286.1z M195.9,275.8v5.2c0,0.6,0.4,1,1,1   c0.6,0,1-0.4,1-1v-5.2c0-0.6-0.4-1-1-1C196.3,274.8,195.9,275.2,195.9,275.8z M195.9,265.4v5.2c0,0.6,0.4,1,1,1c0.6,0,1-0.4,1-1   v-5.2c0-0.6-0.4-1-1-1C196.3,264.4,195.9,264.9,195.9,265.4z M195.9,255.1v5.2c0,0.6,0.4,1,1,1c0.6,0,1-0.4,1-1v-5.2   c0-0.6-0.4-1-1-1C196.3,254.1,195.9,254.5,195.9,255.1z M195.9,244.7v5.2c0,0.6,0.4,1,1,1c0.6,0,1-0.4,1-1v-5.2c0-0.6-0.4-1-1-1   C196.3,243.7,195.9,244.2,195.9,244.7z M195.9,234.4v5.2c0,0.6,0.4,1,1,1c0.6,0,1-0.4,1-1v-5.2c0-0.6-0.4-1-1-1   C196.3,233.4,195.9,233.8,195.9,234.4z"/>
	<path class="st60" d="M195.9,317.2v2.5c0,0.6,0.4,1,1,1c0.6,0,1-0.4,1-1v-2.5c0-0.6-0.4-1-1-1C196.3,316.2,195.9,316.6,195.9,317.2   "/>
	
		<linearGradient id="SVGID_61_" gradientUnits="userSpaceOnUse" x1="-114.7109" y1="-70.1899" x2="-113.7109" y2="-70.1899" gradientTransform="matrix(11.608 0 0 -11.608 1752.6713 -147.7421)">
		<stop offset="0" style="stop-color:#FEB883"/>
		<stop offset="0.5076" style="stop-color:#ED9AC0"/>
		<stop offset="1" style="stop-color:#B78FFC"/>
	</linearGradient>
	<circle class="st61" cx="426.5" cy="667" r="5.8"/>
	
		<linearGradient id="SVGID_62_" gradientUnits="userSpaceOnUse" x1="-114.7109" y1="-70.1552" x2="-113.7109" y2="-70.1552" gradientTransform="matrix(12.1402 0 0 -12.1402 1993.7554 -644.833)">
		<stop offset="0" style="stop-color:#B284FC"/>
		<stop offset="1" style="stop-color:#6356ED"/>
	</linearGradient>
	<path class="st62" d="M613.3,206.9c0,3.4-2.7,6.1-6.1,6.1c-3.4,0-6.1-2.7-6.1-6.1c0-3.4,2.7-6.1,6.1-6.1   C610.6,200.8,613.3,203.5,613.3,206.9z"/>
	
		<linearGradient id="SVGID_63_" gradientUnits="userSpaceOnUse" x1="-114.7109" y1="-70.1552" x2="-113.7109" y2="-70.1552" gradientTransform="matrix(12.1402 0 0 -12.1402 1734.1428 -581.515)">
		<stop offset="0" style="stop-color:#FEB883"/>
		<stop offset="0.5076" style="stop-color:#ED9AC0"/>
		<stop offset="1" style="stop-color:#B78FFC"/>
	</linearGradient>
	<path class="st63" d="M353.7,270.2c0,3.4-2.7,6.1-6.1,6.1c-3.4,0-6.1-2.7-6.1-6.1c0-3.4,2.7-6.1,6.1-6.1   C351,264.1,353.7,266.8,353.7,270.2z"/>
	
		<linearGradient id="SVGID_64_" gradientUnits="userSpaceOnUse" x1="-114.7109" y1="-70.1464" x2="-113.7109" y2="-70.1464" gradientTransform="matrix(18.4846 0 0 -18.4846 2282.709 -890.7156)">
		<stop offset="0" style="stop-color:#B284FC"/>
		<stop offset="1" style="stop-color:#6356ED"/>
	</linearGradient>
	<path class="st64" d="M181,405.9c0,5.1-4.1,9.2-9.2,9.2c-5.1,0-9.2-4.1-9.2-9.2c0-5.1,4.1-9.2,9.2-9.2   C176.9,396.7,181,400.8,181,405.9z"/>
	
		<linearGradient id="SVGID_65_" gradientUnits="userSpaceOnUse" x1="-114.7109" y1="-70.1552" x2="-113.7109" y2="-70.1552" gradientTransform="matrix(12.1402 0 0 -12.1402 1932.7887 -259.8611)">
		<stop offset="0" style="stop-color:#FEB883"/>
		<stop offset="0.5076" style="stop-color:#ED9AC0"/>
		<stop offset="1" style="stop-color:#B78FFC"/>
	</linearGradient>
	<path class="st65" d="M552.3,591.8c0,3.4-2.7,6.1-6.1,6.1c-3.4,0-6.1-2.7-6.1-6.1c0-3.4,2.7-6.1,6.1-6.1   C549.6,585.8,552.3,588.5,552.3,591.8z"/>
	
		<linearGradient id="SVGID_66_" gradientUnits="userSpaceOnUse" x1="-114.7109" y1="-70.1429" x2="-113.7109" y2="-70.1429" gradientTransform="matrix(26.8383 0 0 -26.8383 3346.574 -1282.8531)">
		<stop offset="0" style="stop-color:#B284FC"/>
		<stop offset="1" style="stop-color:#6356ED"/>
	</linearGradient>
	<path class="st66" d="M295.1,599.7c0,7.4-6,13.4-13.4,13.4c-7.4,0-13.4-6-13.4-13.4c0-7.4,6-13.4,13.4-13.4   C289.1,586.2,295.1,592.3,295.1,599.7z"/>
	
		<linearGradient id="SVGID_67_" gradientUnits="userSpaceOnUse" x1="-114.7109" y1="-70.1458" x2="-113.7109" y2="-70.1458" gradientTransform="matrix(34.8661 0 0 -34.8661 4654.9888 -1935.1469)">
		<stop offset="0" style="stop-color:#8BE1DA"/>
		<stop offset="1" style="stop-color:#5F90FC"/>
	</linearGradient>
	<path class="st67" d="M690.7,510.6c0,9.6-7.8,17.4-17.4,17.4c-9.6,0-17.4-7.8-17.4-17.4c0-9.6,7.8-17.4,17.4-17.4   C682.9,493.1,690.7,500.9,690.7,510.6z"/>
	
		<linearGradient id="SVGID_68_" gradientUnits="userSpaceOnUse" x1="-114.7109" y1="-70.1679" x2="-113.7109" y2="-70.1679" gradientTransform="matrix(17.4331 0 0 -17.4331 2085.2639 -1026.0291)">
		<stop offset="0" style="stop-color:#B284FC"/>
		<stop offset="1" style="stop-color:#6356ED"/>
	</linearGradient>
	<path class="st68" d="M102.7,197.2c0,4.8-3.9,8.7-8.7,8.7c-4.8,0-8.7-3.9-8.7-8.7c0-4.8,3.9-8.7,8.7-8.7   C98.8,188.5,102.7,192.4,102.7,197.2z"/>
	
		<linearGradient id="SVGID_69_" gradientUnits="userSpaceOnUse" x1="-114.7109" y1="-70.1679" x2="-113.7109" y2="-70.1679" gradientTransform="matrix(17.4331 0 0 -17.4331 2601.7275 -940.9827)">
		<stop offset="0" style="stop-color:#8BE1DA"/>
		<stop offset="1" style="stop-color:#5F90FC"/>
	</linearGradient>
	<path class="st69" d="M619.2,282.3c0,4.8-3.9,8.7-8.7,8.7c-4.8,0-8.7-3.9-8.7-8.7c0-4.8,3.9-8.7,8.7-8.7   C615.3,273.5,619.2,277.4,619.2,282.3z"/>
	
		<linearGradient id="SVGID_70_" gradientUnits="userSpaceOnUse" x1="-114.7109" y1="-70.1429" x2="-113.7109" y2="-70.1429" gradientTransform="matrix(26.8383 0 0 -26.8383 3353.989 -1798.5767)">
		<stop offset="0" style="stop-color:#8BE1DA"/>
		<stop offset="1" style="stop-color:#5F90FC"/>
	</linearGradient>
	<path class="st70" d="M302.6,83.9c0,7.4-6,13.4-13.4,13.4c-7.4,0-13.4-6-13.4-13.4s6-13.4,13.4-13.4   C296.5,70.5,302.6,76.5,302.6,83.9z"/>
	
		<linearGradient id="SVGID_71_" gradientUnits="userSpaceOnUse" x1="-114.7109" y1="-70.1429" x2="-113.7109" y2="-70.1429" gradientTransform="matrix(26.8383 0 0 -26.8383 3078.2725 -1515.3087)">
		<stop offset="0" style="stop-color:#FEB883"/>
		<stop offset="0.5076" style="stop-color:#ED9AC0"/>
		<stop offset="1" style="stop-color:#B78FFC"/>
	</linearGradient>
	<path class="st71" d="M26.8,367.2c0,7.4-6,13.4-13.4,13.4c-7.4,0-13.4-6-13.4-13.4c0-7.4,6-13.4,13.4-13.4   C20.8,353.8,26.8,359.8,26.8,367.2z"/>
	
		<linearGradient id="SVGID_72_" gradientUnits="userSpaceOnUse" x1="-114.7109" y1="-70.1429" x2="-113.7109" y2="-70.1429" gradientTransform="matrix(26.8383 0 0 -26.8383 3743.8728 -1757.7682)">
		<stop offset="0" style="stop-color:#B284FC"/>
		<stop offset="1" style="stop-color:#6356ED"/>
	</linearGradient>
	<path class="st72" d="M692.4,124.7c0,7.4-6,13.4-13.4,13.4c-7.4,0-13.4-6-13.4-13.4s6-13.4,13.4-13.4   C686.4,111.3,692.4,117.3,692.4,124.7z"/>
	<path class="st60" d="M93.7,525.2l-2.4,0.8c-0.5,0.2-0.8,0.7-0.6,1.3c0.2,0.5,0.7,0.8,1.3,0.6l2.4-0.8c0.5-0.2,0.8-0.7,0.6-1.3   C94.8,525.3,94.2,525,93.7,525.2"/>
	<path class="st60" d="M38.5,543.6l-4.8,1.6c-0.5,0.2-0.8,0.7-0.6,1.3c0.2,0.5,0.7,0.8,1.3,0.6l4.8-1.6c0.5-0.2,0.8-0.7,0.6-1.3   C39.6,543.7,39,543.4,38.5,543.6z M48.1,540.4l-4.8,1.6c-0.5,0.2-0.8,0.7-0.6,1.3c0.2,0.5,0.7,0.8,1.3,0.6l4.8-1.6   c0.5-0.2,0.8-0.7,0.6-1.3C49.2,540.5,48.6,540.2,48.1,540.4z M57.7,537.2l-4.8,1.6c-0.5,0.2-0.8,0.7-0.6,1.3   c0.2,0.5,0.7,0.8,1.3,0.6l4.8-1.6c0.5-0.2,0.8-0.7,0.6-1.3C58.8,537.3,58.2,537,57.7,537.2z M67.3,534l-4.8,1.6   c-0.5,0.2-0.8,0.7-0.6,1.3c0.2,0.5,0.7,0.8,1.3,0.6l4.8-1.6c0.5-0.2,0.8-0.7,0.6-1.3C68.4,534.1,67.8,533.8,67.3,534z M76.9,530.8   l-4.8,1.6c-0.5,0.2-0.8,0.7-0.6,1.3c0.2,0.5,0.7,0.8,1.3,0.6l4.8-1.6c0.5-0.2,0.8-0.7,0.6-1.3C78,530.9,77.4,530.6,76.9,530.8z    M86.5,527.6l-4.8,1.6c-0.5,0.2-0.8,0.7-0.6,1.3c0.2,0.5,0.7,0.8,1.3,0.6l4.8-1.6c0.5-0.2,0.8-0.7,0.6-1.3   C87.6,527.7,87.1,527.4,86.5,527.6z"/>
	<path class="st60" d="M28.9,546.8l-2.4,0.8c-0.5,0.2-0.8,0.7-0.6,1.3c0.2,0.5,0.7,0.8,1.3,0.6l2.4-0.8c0.5-0.2,0.8-0.7,0.6-1.3   C30,546.9,29.4,546.6,28.9,546.8"/>
</g>
</svg>
